<svg xmlns="http://www.w3.org/2000/svg" viewBox="0 0 1400 520"><defs><linearGradient id="g" x1="0" x2="1"><stop stop-color="#111827"/><stop offset=".55" stop-color="#312e81"/><stop offset="1" stop-color="#0f766e"/></linearGradient><filter id="glow"><feGaussianBlur stdDeviation="7" result="b"/><feMerge><feMergeNode in="b"/><feMergeNode in="SourceGraphic"/></feMerge></filter></defs><rect width="1400" height="520" rx="32" fill="url(#g)"/><g opacity=".15" fill="none" stroke="#fff"><path d="M0 100h1400M0 180h1400M0 260h1400M0 340h1400M120 0v520M260 0v520M400 0v520M540 0v520M680 0v520M820 0v520M960 0v520M1100 0v520M1240 0v520"/></g><g transform="translate(60 305)" fill="#f8fafc"><path opacity=".88" d="M0 155V75l74-50 74 50v80zM205 155V30l92-62 92 62v125zM450 155V60l73-47 74 47v95zM650 155V0l108-75 108 75v155zM920 155V45l73-47 74 47v110zM1120 155V20l97-62 97 62v135z"/><g fill="#111827"><rect x="35" y="92" width="18" height="23"/><rect x="84" y="92" width="18" height="23"/><rect x="243" y="52" width="20" height="28"/><rect x="304" y="52" width="20" height="28"/><rect x="683" y="38" width="20" height="28"/><rect x="745" y="38" width="20" height="28"/></g></g><g fill="#fff" font-family="Arial,Helvetica,sans-serif"><text x="70" y="90" font-size="58" font-weight="700">AI REAL ESTATE</text><text x="70" y="150" font-size="58" font-weight="700">PROPERTY LISTING WRITER</text><text x="72" y="198" font-size="24" opacity=".82">Accurate facts • Structured copy • Buyer-focused storytelling</text></g><g filter="url(#glow)" fill="#fff"><circle cx="1020" cy="100" r="10"><animate attributeName="r" values="7;14;7" dur="2.2s" repeatCount="indefinite"/></circle><circle cx="1110" cy="175" r="9"><animate attributeName="r" values="6;13;6" dur="1.8s" repeatCount="indefinite"/></circle><circle cx="1240" cy="110" r="9"><animate attributeName="r" values="6;14;6" dur="2.6s" repeatCount="indefinite"/></circle><path d="M1020 100L1110 175L1240 110" fill="none" stroke="#fff" stroke-width="3" stroke-dasharray="8 10"><animate attributeName="stroke-dashoffset" from="0" to="-36" dur="1.2s" repeatCount="indefinite"/></path></g></svg>